<svg width="512" height="512" viewBox="0 0 512 512" fill="none" xmlns="http://www.w3.org/2000/svg">
<path d="M197.33 160V64C197.33 46.33 211.66 32 229.33 32H282.66C300.33 32 314.66 46.33 314.66 64V160" stroke="#16a34a" stroke-width="24" stroke-linecap="round" stroke-linejoin="round"/>
<path d="M314.66 128H400C426.5 128 448 149.5 448 176V320C448 337.66 433.66 352 416 352H96C78.33 352 64 337.66 64 320V176C64 149.5 85.5 128 112 128H197.33" stroke="#16a34a" stroke-width="24" stroke-linecap="round" stroke-linejoin="round"/>
<path d="M144 432H368" stroke="#16a34a" stroke-width="24" stroke-linecap="round" stroke-linejoin="round"/>
<path d="M256 352V432" stroke="#16a34a" stroke-width="24" stroke-linecap="round" stroke-linejoin="round"/>
<circle cx="368" cy="240" r="32" fill="#16a34a"/>
<circle cx="144" cy="240" r="32" fill="#16a34a"/>
</svg>
